# xmcd
# 
# Track frame offsets:
#     150
#     23492
#     44905
#     56322
#     75037
#     92965
#     111025
#     128872
#     145575
#     158465
#     173862
#     191400
#     208652
#     224995
#     256852
# 
# Disc length: 3752
# 
# Revision: 1
# Processed by: cddbd v1.5.1PL0 Copyright (c) Steve Scherf et al.
# Submitted via: BonkEnc v1.0beta3
# 
DISCID=c70ea60f
DTITLE=John "Crawling'snake" Mac - Doctor Doom
DYEAR=2003
DGENRE=Blues
TTITLE0=Delorez Rulz
TTITLE1=Walk With the Living
TTITLE2=Livin' In A Honky Tonk
TTITLE3=A Good Distance (To Get Us Back Together)
TTITLE4=Irresponsible Blues
TTITLE5=The Stars Up Above
TTITLE6=Mecca Blues
TTITLE7=Dr. Doom
TTITLE8=Beechwood Afternoon
TTITLE9=Charlie's Masterpiece Prison Blues
TTITLE10=Call Waiting
TTITLE11=Corporeal Blues
TTITLE12=River @ The End Of The World
TTITLE13=What Have I Done
TTITLE14=Honeysuckle Rose
EXTD=
EXTT0=
EXTT1=
EXTT2=
EXTT3=
EXTT4=
EXTT5=
EXTT6=
EXTT7=
EXTT8=
EXTT9=
EXTT10=
EXTT11=
EXTT12=
EXTT13=
EXTT14=
PLAYORDER=
